<svg version="1.1" id="Layer_1" xmlns="http://www.w3.org/2000/svg" xmlns:xlink="http://www.w3.org/1999/xlink" x="0px" y="0px"
	 width="100%" viewBox="0 0 4000 4000" enable-background="new 0 0 4000 4000" xml:space="preserve">
<path fill="#000000" opacity="1.000000" stroke="none" 
	d="
M2120.000000,4002.000000 
	C1413.333374,4002.000000 707.666687,4002.000000 2.000000,4002.000000 
	C2.000000,2668.666748 2.000000,1335.333374 2.000000,2.000000 
	C1335.333374,2.000000 2668.666748,2.000000 4002.000000,2.000000 
	C4002.000000,1335.333374 4002.000000,2668.666748 4002.000000,4002.000000 
	C3375.000000,4002.000000 2748.000000,4002.000000 2120.000000,4002.000000 
M2119.000000,3655.824219 
	C2518.644043,3655.824707 2918.288330,3655.825439 3317.932373,3655.821533 
	C3322.598389,3655.821533 3327.271484,3655.904541 3331.929688,3655.695312 
	C3368.438965,3654.055664 3398.513428,3625.889648 3402.076172,3589.670898 
	C3403.150146,3578.751953 3403.759766,3567.740234 3403.763916,3556.770508 
	C3403.856689,3310.783447 3403.935303,3064.796631 3403.761230,2818.809570 
	C3403.720215,2760.838379 3402.536621,2702.868896 3402.305664,2644.896484 
	C3402.193848,2616.838623 3399.991211,2588.998291 3396.387207,2561.212646 
	C3380.672119,2440.066162 3338.357178,2328.901855 3270.744141,2227.334229 
	C3236.603027,2176.047363 3196.238281,2129.953857 3151.067627,2088.152100 
	C3090.165771,2031.791626 3021.898438,1986.348145 2946.329590,1951.956299 
	C2843.806396,1905.297485 2736.338135,1881.545288 2623.585205,1881.736084 
	C2602.123779,1881.772339 2584.010742,1888.705322 2568.119873,1902.966431 
	C2541.795654,1926.590454 2513.873291,1948.253906 2484.637939,1968.146851 
	C2394.342773,2029.587280 2296.052979,2072.640869 2189.405762,2096.705322 
	C2128.660156,2110.412109 2067.077148,2116.064453 2005.020142,2117.723145 
	C1994.736206,2117.998047 1984.411621,2116.730469 1974.105225,2116.186768 
	C1957.476196,2115.309082 1940.789429,2115.040283 1924.227051,2113.463623 
	C1853.233521,2106.705322 1784.050415,2091.675537 1716.880005,2067.482422 
	C1652.921509,2044.446167 1592.473511,2014.451660 1535.687866,1977.092163 
	C1500.546997,1953.972778 1467.477539,1928.147461 1435.782837,1900.514038 
	C1421.420898,1887.992432 1404.679688,1881.834473 1385.444580,1881.763428 
	C1358.424194,1881.663452 1331.520508,1882.851196 1304.627075,1885.604370 
	C1202.169189,1896.093628 1105.635986,1925.833984 1015.021301,1974.615601 
	C929.280212,2020.773315 854.821228,2081.018799 791.454407,2155.011475 
	C726.496887,2230.861572 677.961792,2316.048584 645.618896,2410.477051 
	C616.945251,2494.192627 603.781921,2580.421143 603.800354,2668.816162 
	C603.862915,2969.133545 603.821045,3269.451172 603.844543,3569.768555 
	C603.845032,3575.764404 603.689026,3581.816406 604.402466,3587.746582 
	C607.654053,3614.770996 620.774963,3635.186035 645.330688,3647.788574 
	C658.806641,3654.704590 673.225647,3655.893799 688.075623,3655.891357 
	C1164.383789,3655.810303 1640.691895,3655.823975 2119.000000,3655.824219 
M2371.358398,1738.361694 
	C2444.615479,1696.416260 2509.153320,1643.788696 2564.501465,1580.041016 
	C2612.001465,1525.332153 2650.837646,1465.033203 2680.757324,1398.963257 
	C2718.586182,1315.428345 2740.332275,1227.866455 2745.435547,1136.439941 
	C2747.717773,1095.553101 2746.963867,1054.545044 2742.576172,1013.642334 
	C2732.245361,917.336914 2704.598633,826.463074 2658.733398,741.160522 
	C2619.248779,667.724670 2569.039795,602.628479 2507.615479,546.120056 
	C2447.986328,491.262848 2381.444336,447.020203 2307.555664,413.802307 
	C2226.124268,377.193420 2140.741455,355.883423 2051.739014,350.705597 
	C2008.557983,348.193481 1965.185669,348.561310 1921.955811,353.454407 
	C1827.105347,364.190247 1737.429077,391.379059 1653.283447,436.477600 
	C1574.650635,478.621521 1505.834839,533.205933 1446.564819,599.937073 
	C1402.455078,649.599304 1365.903076,704.318604 1336.434326,763.720825 
	C1317.896118,801.089722 1302.827637,839.899658 1290.894409,879.943359 
	C1272.315796,942.286865 1262.743408,1006.055847 1260.321777,1070.912476 
	C1258.939941,1107.915283 1261.361450,1144.819458 1265.649292,1181.616211 
	C1274.954590,1261.471558 1297.058594,1337.669067 1331.401001,1410.241211 
	C1373.094604,1498.347656 1430.163696,1575.272217 1502.084839,1641.064575 
	C1559.576050,1693.656616 1623.845947,1736.055298 1694.703003,1768.572021 
	C1787.829102,1811.307861 1885.843262,1832.557617 1987.955811,1835.701660 
	C2021.958618,1836.748535 2055.876465,1834.258301 2089.666016,1830.420288 
	C2189.357422,1819.097046 2282.746582,1788.369141 2371.358398,1738.361694 
z"/>
<path fill="#221F1F" opacity="1.000000" stroke="none" 
	d="
M2118.000000,3655.823730 
	C1640.691895,3655.823975 1164.383789,3655.810303 688.075623,3655.891357 
	C673.225647,3655.893799 658.806641,3654.704590 645.330688,3647.788574 
	C620.774963,3635.186035 607.654053,3614.770996 604.402466,3587.746582 
	C603.689026,3581.816406 603.845032,3575.764404 603.844543,3569.768555 
	C603.821045,3269.451172 603.862915,2969.133545 603.800354,2668.816162 
	C603.781921,2580.421143 616.945251,2494.192627 645.618896,2410.477051 
	C677.961792,2316.048584 726.496887,2230.861572 791.454407,2155.011475 
	C854.821228,2081.018799 929.280212,2020.773315 1015.021301,1974.615601 
	C1105.635986,1925.833984 1202.169189,1896.093628 1304.627075,1885.604370 
	C1331.520508,1882.851196 1358.424194,1881.663452 1385.444580,1881.763428 
	C1404.679688,1881.834473 1421.420898,1887.992432 1435.782837,1900.514038 
	C1467.477539,1928.147461 1500.546997,1953.972778 1535.687866,1977.092163 
	C1592.473511,2014.451660 1652.921509,2044.446167 1716.880005,2067.482422 
	C1784.050415,2091.675537 1853.233521,2106.705322 1924.227051,2113.463623 
	C1940.789429,2115.040283 1957.476196,2115.309082 1974.105225,2116.186768 
	C1984.411621,2116.730469 1994.736206,2117.998047 2005.020142,2117.723145 
	C2067.077148,2116.064453 2128.660156,2110.412109 2189.405762,2096.705322 
	C2296.052979,2072.640869 2394.342773,2029.587280 2484.637939,1968.146851 
	C2513.873291,1948.253906 2541.795654,1926.590454 2568.119873,1902.966431 
	C2584.010742,1888.705322 2602.123779,1881.772339 2623.585205,1881.736084 
	C2736.338135,1881.545288 2843.806396,1905.297485 2946.329590,1951.956299 
	C3021.898438,1986.348145 3090.165771,2031.791626 3151.067627,2088.152100 
	C3196.238281,2129.953857 3236.603027,2176.047363 3270.744141,2227.334229 
	C3338.357178,2328.901855 3380.672119,2440.066162 3396.387207,2561.212646 
	C3399.991211,2588.998291 3402.193848,2616.838623 3402.305664,2644.896484 
	C3402.536621,2702.868896 3403.720215,2760.838379 3403.761230,2818.809570 
	C3403.935303,3064.796631 3403.856689,3310.783447 3403.763916,3556.770508 
	C3403.759766,3567.740234 3403.150146,3578.751953 3402.076172,3589.670898 
	C3398.513428,3625.889648 3368.438965,3654.055664 3331.929688,3655.695312 
	C3327.271484,3655.904541 3322.598389,3655.821533 3317.932373,3655.821533 
	C2918.288330,3655.825439 2518.644043,3655.824707 2118.000000,3655.823730 
M2807.075684,2059.897705 
	C2797.467041,2057.139160 2787.913330,2054.170166 2778.240479,2051.658447 
	C2738.439453,2041.323853 2697.951904,2035.256470 2656.917969,2033.014526 
	C2652.947021,2032.797485 2648.528320,2034.481812 2644.880859,2036.371216 
	C2641.106689,2038.326050 2637.998535,2041.581177 2634.634521,2044.311279 
	C2570.646729,2096.241943 2501.246582,2139.590576 2426.555420,2174.304443 
	C2348.804932,2210.440430 2267.710449,2236.300537 2183.285889,2251.628906 
	C2129.066895,2261.473389 2074.381592,2266.442139 2019.348999,2267.771484 
	C1987.353760,2268.544189 1955.432983,2266.776123 1923.518311,2264.390137 
	C1869.870728,2260.379883 1816.946533,2251.920410 1764.761841,2239.053711 
	C1630.277344,2205.895508 1507.815430,2147.373535 1397.327393,2063.843750 
	C1386.164429,2055.404541 1375.321777,2046.540894 1364.352417,2037.846436 
	C1360.344727,2034.670044 1356.148682,2032.092529 1350.722046,2032.714600 
	C1326.567627,2035.484009 1302.230469,2037.171021 1278.292236,2041.217896 
	C1209.031128,2052.927002 1143.550293,2075.821289 1081.954468,2109.799072 
	C1011.047913,2148.912842 949.757385,2199.751221 898.339478,2262.086914 
	C844.263428,2327.645752 805.001831,2401.428467 780.646423,2482.989502 
	C764.045654,2538.581787 754.533386,2595.488525 754.422485,2653.387939 
	C753.889648,2931.701904 754.181091,3210.017334 754.190308,3488.332275 
	C754.190430,3491.330078 754.257019,3494.332031 754.422668,3497.324707 
	C754.705994,3502.444336 757.432129,3505.360596 762.589600,3505.578857 
	C767.914307,3505.804199 773.249939,3505.839111 778.580811,3505.839355 
	C1488.533813,3505.849609 2198.486816,3505.849121 2908.439941,3505.849121 
	C3016.099609,3505.849121 3123.759033,3505.849365 3231.418701,3505.844482 
	C3234.751465,3505.844238 3238.093506,3505.932617 3241.414795,3505.722168 
	C3249.862793,3505.187988 3251.645752,3503.347168 3252.062012,3494.611328 
	C3252.268066,3490.287109 3252.161865,3485.947021 3252.161865,3481.614258 
	C3252.165283,3210.298828 3252.006592,2938.983154 3252.294434,2667.668213 
	C3252.354248,2611.313477 3245.763184,2556.010010 3231.486328,2501.535889 
	C3213.651855,2433.487305 3184.854980,2370.341064 3145.764404,2312.015625 
	C3112.377930,2262.199951 3072.762695,2217.768555 3026.548584,2179.363525 
	C2961.674805,2125.452148 2889.338379,2085.231689 2807.075684,2059.897705 
z"/>
<path fill="#221F1F" opacity="1.000000" stroke="none" 
	d="
M2370.720947,1738.724121 
	C2282.746582,1788.369141 2189.357422,1819.097046 2089.666016,1830.420288 
	C2055.876465,1834.258301 2021.958618,1836.748535 1987.955811,1835.701660 
	C1885.843262,1832.557617 1787.829102,1811.307861 1694.703003,1768.572021 
	C1623.845947,1736.055298 1559.576050,1693.656616 1502.084839,1641.064575 
	C1430.163696,1575.272217 1373.094604,1498.347656 1331.401001,1410.241211 
	C1297.058594,1337.669067 1274.954590,1261.471558 1265.649292,1181.616211 
	C1261.361450,1144.819458 1258.939941,1107.915283 1260.321777,1070.912476 
	C1262.743408,1006.055847 1272.315796,942.286865 1290.894409,879.943359 
	C1302.827637,839.899658 1317.896118,801.089722 1336.434326,763.720825 
	C1365.903076,704.318604 1402.455078,649.599304 1446.564819,599.937073 
	C1505.834839,533.205933 1574.650635,478.621521 1653.283447,436.477600 
	C1737.429077,391.379059 1827.105347,364.190247 1921.955811,353.454407 
	C1965.185669,348.561310 2008.557983,348.193481 2051.739014,350.705597 
	C2140.741455,355.883423 2226.124268,377.193420 2307.555664,413.802307 
	C2381.444336,447.020203 2447.986328,491.262848 2507.615479,546.120056 
	C2569.039795,602.628479 2619.248779,667.724670 2658.733398,741.160522 
	C2704.598633,826.463074 2732.245361,917.336914 2742.576172,1013.642334 
	C2746.963867,1054.545044 2747.717773,1095.553101 2745.435547,1136.439941 
	C2740.332275,1227.866455 2718.586182,1315.428345 2680.757324,1398.963257 
	C2650.837646,1465.033203 2612.001465,1525.332153 2564.501465,1580.041016 
	C2509.153320,1643.788696 2444.615479,1696.416260 2370.720947,1738.724121 
M2562.933350,896.108398 
	C2560.063232,888.643921 2557.241699,881.160278 2554.315674,873.717773 
	C2527.666260,805.930542 2489.240967,745.468140 2440.235596,691.747986 
	C2404.779785,652.881287 2364.562012,619.566040 2320.120605,591.384644 
	C2233.232666,536.286987 2138.225098,506.262909 2035.679077,500.408234 
	C2001.403687,498.451324 1967.098022,499.655640 1932.888062,503.765625 
	C1863.305176,512.125427 1797.180786,531.941406 1734.920654,563.867371 
	C1672.421387,595.915955 1617.056885,637.645386 1569.203003,689.329407 
	C1506.498535,757.052734 1461.753784,834.965576 1435.447388,923.340149 
	C1416.768311,986.091614 1408.779541,1050.175781 1411.505737,1115.788086 
	C1413.835205,1171.852661 1423.365967,1226.443237 1441.064331,1279.528198 
	C1468.679565,1362.358398 1512.927124,1435.481934 1572.609253,1499.117920 
	C1611.378662,1540.455566 1655.456299,1575.414673 1704.447876,1603.910767 
	C1819.611938,1670.896118 1943.759399,1695.906250 2075.734375,1680.266846 
	C2200.739014,1665.453491 2309.695312,1614.372314 2402.792725,1529.841919 
	C2458.671875,1479.105103 2503.345215,1419.724976 2536.297119,1351.690552 
	C2582.658203,1255.969482 2602.008057,1155.094849 2594.458740,1048.969604 
	C2590.769531,997.107666 2580.247314,946.728577 2562.933350,896.108398 
z"/>
<path fill="#000000" opacity="1.000000" stroke="none" 
	d="
M2807.843262,2060.132812 
	C2889.338379,2085.231689 2961.674805,2125.452148 3026.548584,2179.363525 
	C3072.762695,2217.768555 3112.377930,2262.199951 3145.764404,2312.015625 
	C3184.854980,2370.341064 3213.651855,2433.487305 3231.486328,2501.535889 
	C3245.763184,2556.010010 3252.354248,2611.313477 3252.294434,2667.668213 
	C3252.006592,2938.983154 3252.165283,3210.298828 3252.161865,3481.614258 
	C3252.161865,3485.947021 3252.268066,3490.287109 3252.062012,3494.611328 
	C3251.645752,3503.347168 3249.862793,3505.187988 3241.414795,3505.722168 
	C3238.093506,3505.932617 3234.751465,3505.844238 3231.418701,3505.844482 
	C3123.759033,3505.849365 3016.099609,3505.849121 2908.439941,3505.849121 
	C2198.486816,3505.849121 1488.533813,3505.849609 778.580811,3505.839355 
	C773.249939,3505.839111 767.914307,3505.804199 762.589600,3505.578857 
	C757.432129,3505.360596 754.705994,3502.444336 754.422668,3497.324707 
	C754.257019,3494.332031 754.190430,3491.330078 754.190308,3488.332275 
	C754.181091,3210.017334 753.889648,2931.701904 754.422485,2653.387939 
	C754.533386,2595.488525 764.045654,2538.581787 780.646423,2482.989502 
	C805.001831,2401.428467 844.263428,2327.645752 898.339478,2262.086914 
	C949.757385,2199.751221 1011.047913,2148.912842 1081.954468,2109.799072 
	C1143.550293,2075.821289 1209.031128,2052.927002 1278.292236,2041.217896 
	C1302.230469,2037.171021 1326.567627,2035.484009 1350.722046,2032.714600 
	C1356.148682,2032.092529 1360.344727,2034.670044 1364.352417,2037.846436 
	C1375.321777,2046.540894 1386.164429,2055.404541 1397.327393,2063.843750 
	C1507.815430,2147.373535 1630.277344,2205.895508 1764.761841,2239.053711 
	C1816.946533,2251.920410 1869.870728,2260.379883 1923.518311,2264.390137 
	C1955.432983,2266.776123 1987.353760,2268.544189 2019.348999,2267.771484 
	C2074.381592,2266.442139 2129.066895,2261.473389 2183.285889,2251.628906 
	C2267.710449,2236.300537 2348.804932,2210.440430 2426.555420,2174.304443 
	C2501.246582,2139.590576 2570.646729,2096.241943 2634.634521,2044.311279 
	C2637.998535,2041.581177 2641.106689,2038.326050 2644.880859,2036.371216 
	C2648.528320,2034.481812 2652.947021,2032.797485 2656.917969,2033.014526 
	C2697.951904,2035.256470 2738.439453,2041.323853 2778.240479,2051.658447 
	C2787.913330,2054.170166 2797.467041,2057.139160 2807.843262,2060.132812 
z"/>
<path fill="#000000" opacity="1.000000" stroke="none" 
	d="
M2563.191895,896.850830 
	C2580.247314,946.728577 2590.769531,997.107666 2594.458740,1048.969604 
	C2602.008057,1155.094849 2582.658203,1255.969482 2536.297119,1351.690552 
	C2503.345215,1419.724976 2458.671875,1479.105103 2402.792725,1529.841919 
	C2309.695312,1614.372314 2200.739014,1665.453491 2075.734375,1680.266846 
	C1943.759399,1695.906250 1819.611938,1670.896118 1704.447876,1603.910767 
	C1655.456299,1575.414673 1611.378662,1540.455566 1572.609253,1499.117920 
	C1512.927124,1435.481934 1468.679565,1362.358398 1441.064331,1279.528198 
	C1423.365967,1226.443237 1413.835205,1171.852661 1411.505737,1115.788086 
	C1408.779541,1050.175781 1416.768311,986.091614 1435.447388,923.340149 
	C1461.753784,834.965576 1506.498535,757.052734 1569.203003,689.329407 
	C1617.056885,637.645386 1672.421387,595.915955 1734.920654,563.867371 
	C1797.180786,531.941406 1863.305176,512.125427 1932.888062,503.765625 
	C1967.098022,499.655640 2001.403687,498.451324 2035.679077,500.408234 
	C2138.225098,506.262909 2233.232666,536.286987 2320.120605,591.384644 
	C2364.562012,619.566040 2404.779785,652.881287 2440.235596,691.747986 
	C2489.240967,745.468140 2527.666260,805.930542 2554.315674,873.717773 
	C2557.241699,881.160278 2560.063232,888.643921 2563.191895,896.850830 
z"/>
</svg>